<svg xmlns="http://www.w3.org/2000/svg" width="720" height="330" viewBox="0 0 720 330" role="img" aria-label="AI监控井下识别画面">
  <defs>
    <linearGradient id="tunnel" x1="0" x2="1" y1="0" y2="1">
      <stop offset="0" stop-color="#34383f"/>
      <stop offset=".45" stop-color="#141a22"/>
      <stop offset="1" stop-color="#05080d"/>
    </linearGradient>
    <radialGradient id="lamp" cx=".5" cy=".5" r=".5">
      <stop offset="0" stop-color="#ffffff"/>
      <stop offset=".45" stop-color="#cfd7df" stop-opacity=".58"/>
      <stop offset="1" stop-color="#ffffff" stop-opacity="0"/>
    </radialGradient>
    <filter id="soft" x="-30%" y="-30%" width="160%" height="160%">
      <feGaussianBlur stdDeviation="3"/>
    </filter>
  </defs>
  <rect width="720" height="330" rx="12" fill="#07111f"/>
  <rect x="0" y="0" width="720" height="330" fill="url(#tunnel)"/>
  <path d="M0 42 C190 18 382 18 720 44 V0 H0Z" fill="#60656d" opacity=".28"/>
  <g stroke="#505861" stroke-width="5" opacity=".82">
    <path d="M78 330 L292 92"/>
    <path d="M242 330 L358 86"/>
    <path d="M434 330 L418 86"/>
    <path d="M598 330 L486 96"/>
  </g>
  <g stroke="#222a33" stroke-width="8" opacity=".86">
    <path d="M0 170 H720"/>
    <path d="M0 216 H720"/>
    <path d="M0 266 H720"/>
  </g>
  <g opacity=".75">
    <circle cx="214" cy="74" r="70" fill="url(#lamp)" filter="url(#soft)"/>
    <circle cx="374" cy="66" r="54" fill="url(#lamp)" filter="url(#soft)"/>
    <circle cx="520" cy="76" r="48" fill="url(#lamp)" filter="url(#soft)"/>
  </g>
  <g transform="translate(188 116)">
    <path d="M28 48 h76 l22 178 H8z" fill="#1f252d"/>
    <path d="M36 18 C44 -4 86 -4 98 20 C78 14 58 14 36 18Z" fill="#e3312c"/>
    <circle cx="68" cy="38" r="24" fill="#ba7b51"/>
    <path d="M30 72 h78 l16 108 H16z" fill="#202832"/>
    <path d="M42 82 h52" stroke="#d3d9df" stroke-width="5"/>
  </g>
  <rect x="164" y="94" width="148" height="212" fill="none" stroke="#ff3b30" stroke-width="4"/>
  <g transform="translate(456 88)">
    <path d="M0 0h196v140h-196z" fill="#0e1828" opacity=".56" stroke="#5b7897"/>
    <path d="M22 34h120M22 70h156M22 106h90" stroke="#68b7ff" stroke-width="3" opacity=".72"/>
    <circle cx="162" cy="36" r="11" fill="#ff3b30"/>
    <circle cx="162" cy="72" r="11" fill="#ff9f0a"/>
    <circle cx="162" cy="108" r="11" fill="#63d471"/>
  </g>
  <g transform="translate(28 22)" font-family="Arial, sans-serif">
    <rect width="132" height="28" rx="5" fill="#071a32" opacity=".78"/>
    <circle cx="18" cy="14" r="5" fill="#63d471"/>
    <text x="34" y="19" fill="#f2f8ff" font-size="14">CAM-08 在线</text>
  </g>
  <g transform="translate(486 246)">
    <rect width="182" height="42" rx="6" fill="#1b2430" opacity=".82"/>
    <path d="M20 22 h28" stroke="#ff3b30" stroke-width="5"/>
    <text x="62" y="27" fill="#f2f8ff" font-family="Arial, sans-serif" font-size="16">安全帽识别</text>
  </g>
  <rect width="720" height="330" fill="#000" opacity=".16"/>
</svg>
